# Blender 3.2.1
# www.blender.org
mtllib cone.mtl
o 立方体
v 1.000000 -1.000000 -1.000000
v 1.000000 -0.787756 -1.000000
v 1.000000 -1.000000 1.000000
v 1.000000 -0.787756 1.000000
v -1.000000 -1.000000 -1.000000
v -1.000000 -0.787756 -1.000000
v -1.000000 -1.000000 1.000000
v -1.000000 -0.787756 1.000000
v 0.000000 -1.000000 1.000000
v 0.000000 -0.787756 1.000000
v 0.000000 -1.000000 -1.000000
v 0.000000 -0.787756 -1.000000
v 1.000000 -1.000000 0.000000
v 1.000000 -0.787756 0.000000
v -1.000000 -1.000000 0.000000
v -1.000000 -0.787756 0.000000
v 0.000000 0.941548 0.000000
v 0.000000 -1.000000 0.000000
v 0.500000 -1.000000 1.000000
v 0.693699 -0.787756 -1.000000
v 0.693699 -0.787756 1.000000
v 0.500000 -1.000000 -1.000000
v 0.500000 -1.000000 0.000000
v 0.693699 -0.787756 0.000000
v -0.693699 -0.787756 1.000000
v -0.500000 -1.000000 -1.000000
v -0.500000 -1.000000 1.000000
v -0.693699 -0.787756 -1.000000
v -0.693699 -0.787756 0.000000
v -0.500000 -1.000000 0.000000
v 1.000000 -0.787756 0.701295
v -1.000000 -1.000000 0.500000
v 1.000000 -1.000000 0.500000
v -1.000000 -0.787756 0.701295
v 0.000000 -0.787756 0.701295
v 0.000000 -1.000000 0.500000
v 0.693699 -0.787756 0.701295
v 0.500000 -1.000000 0.500000
v -0.500000 -1.000000 0.500000
v -0.693699 -0.787756 0.701295
v 1.000000 -1.000000 -0.500000
v -1.000000 -0.787756 -0.701295
v 0.000000 -0.787756 -0.701295
v 0.000000 -1.000000 -0.500000
v 1.000000 -0.787756 -0.701295
v -1.000000 -1.000000 -0.500000
v 0.500000 -1.000000 -0.500000
v 0.693699 -0.787756 -0.701295
v -0.693699 -0.787756 -0.701295
v -0.500000 -1.000000 -0.500000
vn 1.0000 -0.0000 -0.0000
vn -0.0000 -0.0000 1.0000
vn -1.0000 -0.0000 -0.0000
vn -0.0000 -0.0000 -1.0000
vn -0.0000 -1.0000 -0.0000
vn -0.0000 1.0000 -0.0000
vn -0.0000 0.3758 0.9267
vn 0.9281 0.3723 -0.0000
vn -0.9281 0.3723 -0.0000
vn -0.0000 0.3758 -0.9267
vt 0.305792 0.628707
vt 0.055120 0.902577
vt 0.055436 0.626090
vt 0.306996 0.526361
vt 0.305082 0.902499
vt 0.056640 0.523744
vt 0.055120 0.652577
vt 0.305419 0.629031
vt 0.055399 0.626557
vt 0.306623 0.526685
vt 0.056603 0.524212
vt 0.305082 0.652499
vt 0.306757 0.628450
vt 0.305120 0.902577
vt 0.055809 0.625766
vt 0.307961 0.526104
vt 0.057013 0.523420
vt 0.055082 0.902499
vt 0.305382 0.629498
vt 0.056775 0.625509
vt 0.305120 0.652577
vt 0.055082 0.652499
vt 0.306586 0.527152
vt 0.057979 0.523163
vt 0.180390 0.628028
vt 0.180120 0.652577
vt 0.181594 0.525682
vt 0.180082 0.652499
vt 0.180800 0.627236
vt 0.180120 0.902577
vt 0.180082 0.902499
vt 0.182004 0.524891
vt 0.180427 0.627560
vt 0.055120 0.777577
vt 0.181631 0.525214
vt 0.305082 0.777499
vt 0.181766 0.626980
vt 0.305120 0.777577
vt 0.055082 0.777499
vt 0.182970 0.524634
vt 0.750007 0.874992
vt 0.180120 0.777577
vt 0.117895 0.627293
vt 0.117620 0.652577
vt 0.242582 0.902499
vt 0.244500 0.525626
vt 0.119099 0.524947
vt 0.242582 0.652499
vt 0.117620 0.902577
vt 0.243296 0.627972
vt 0.117620 0.777577
vt 0.749569 0.501107
vt 0.242582 0.777499
vt 0.244090 0.526417
vt 0.117582 0.652499
vt 0.118305 0.626501
vt 0.242620 0.902577
vt 0.242886 0.628763
vt 0.242620 0.652577
vt 0.119509 0.524155
vt 0.117582 0.902499
vt 0.749569 0.501107
vt 0.117582 0.777499
vt 0.242620 0.777577
vt 0.305082 0.714999
vt 0.244127 0.525950
vt 0.119270 0.626244
vt 0.305120 0.715077
vt 0.055120 0.715077
vt 0.242923 0.628295
vt 0.055082 0.714999
vt 0.120474 0.523898
vt 0.749569 0.501107
vt 0.180082 0.714999
vt 0.180120 0.715077
vt 0.877581 0.501526
vt 0.242582 0.714999
vt 0.117620 0.715077
vt 0.242620 0.715077
vt 0.624624 0.500825
vt 0.877581 0.501526
vt 0.117582 0.714999
vt 0.117932 0.626825
vt 0.055120 0.840077
vt 0.055082 0.839999
vt 0.245466 0.525369
vt 0.749569 0.501107
vt 0.180082 0.839999
vt 0.180120 0.840077
vt 0.119136 0.524479
vt 0.305082 0.839999
vt 0.305120 0.840077
vt 0.244262 0.627715
vt 0.117620 0.840077
vt 0.624624 0.500825
vt 0.242582 0.839999
vt 0.624624 0.500825
vt 0.877581 0.501526
vt 0.117582 0.839999
vt 0.242620 0.840077
s 0
usemtl マテリアル
f 31/66/1 3/8/1 33/70/1
f 25/54/2 7/19/2 27/58/2
f 42/86/3 5/13/3 46/93/3
f 20/46/4 1/1/4 22/50/4
f 46/92/5 26/57/5 50/100/5
f 45/91/6 20/45/6 48/96/6
f 43/88/6 28/61/6 49/99/6
f 44/89/5 22/49/5 47/94/5
f 26/56/4 12/32/4 11/29/4
f 19/43/2 10/27/2 9/25/2
f 36/75/5 23/51/5 38/78/5
f 40/80/7 35/73/7 17/41/7
f 31/65/6 24/53/6 37/77/6
f 32/68/5 30/64/5 39/79/5
f 32/67/3 16/40/3 15/37/3
f 41/83/1 14/35/1 13/33/1
f 35/73/7 37/76/7 17/41/7
f 38/78/5 13/34/5 33/69/5
f 3/9/2 21/47/2 19/43/2
f 47/94/5 1/2/5 41/84/5
f 48/96/6 12/31/6 43/88/6
f 12/32/4 22/50/4 11/29/4
f 39/79/5 18/42/5 36/75/5
f 40/82/6 16/39/6 34/71/6
f 5/15/4 28/60/4 26/56/4
f 49/99/6 6/18/6 42/85/6
f 50/100/5 11/30/5 44/89/5
f 10/27/2 27/58/2 9/25/2
f 25/55/6 34/71/6 8/22/6
f 27/59/5 36/75/5 9/26/5
f 19/44/5 33/69/5 3/7/5
f 21/48/6 35/74/6 10/28/6
f 7/20/3 34/72/3 32/67/3
f 7/21/5 39/79/5 27/59/5
f 4/12/6 37/77/6 21/48/6
f 10/28/6 40/82/6 25/55/6
f 9/26/5 38/78/5 19/44/5
f 14/35/1 33/70/1 13/33/1
f 30/64/5 44/89/5 18/42/5
f 29/63/6 42/85/6 16/39/6
f 17/41/8 24/52/8 48/95/8
f 23/51/5 41/84/5 13/34/5
f 1/3/1 45/90/1 41/83/1
f 18/42/5 47/94/5 23/51/5
f 29/62/9 17/41/9 49/97/9
f 14/36/6 48/96/6 24/53/6
f 15/38/5 50/100/5 30/64/5
f 16/40/3 46/93/3 15/37/3
f 17/41/8 37/76/8 24/52/8
f 49/98/10 17/41/10 43/87/10
f 48/95/10 43/87/10 17/41/10
f 17/41/9 29/62/9 40/81/9
f 31/66/1 4/10/1 3/8/1
f 25/54/2 8/23/2 7/19/2
f 42/86/3 6/16/3 5/13/3
f 20/46/4 2/4/4 1/1/4
f 46/92/5 5/14/5 26/57/5
f 45/91/6 2/5/6 20/45/6
f 43/88/6 12/31/6 28/61/6
f 44/89/5 11/30/5 22/49/5
f 26/56/4 28/60/4 12/32/4
f 19/43/2 21/47/2 10/27/2
f 36/75/5 18/42/5 23/51/5
f 31/65/6 14/36/6 24/53/6
f 32/68/5 15/38/5 30/64/5
f 32/67/3 34/72/3 16/40/3
f 41/83/1 45/90/1 14/35/1
f 38/78/5 23/51/5 13/34/5
f 3/9/2 4/11/2 21/47/2
f 47/94/5 22/49/5 1/2/5
f 48/96/6 20/45/6 12/31/6
f 12/32/4 20/46/4 22/50/4
f 39/79/5 30/64/5 18/42/5
f 40/82/6 29/63/6 16/39/6
f 5/15/4 6/17/4 28/60/4
f 49/99/6 28/61/6 6/18/6
f 50/100/5 26/57/5 11/30/5
f 10/27/2 25/54/2 27/58/2
f 25/55/6 40/82/6 34/71/6
f 27/59/5 39/79/5 36/75/5
f 19/44/5 38/78/5 33/69/5
f 21/48/6 37/77/6 35/74/6
f 7/20/3 8/24/3 34/72/3
f 7/21/5 32/68/5 39/79/5
f 4/12/6 31/65/6 37/77/6
f 10/28/6 35/74/6 40/82/6
f 9/26/5 36/75/5 38/78/5
f 14/35/1 31/66/1 33/70/1
f 30/64/5 50/100/5 44/89/5
f 29/63/6 49/99/6 42/85/6
f 23/51/5 47/94/5 41/84/5
f 1/3/1 2/6/1 45/90/1
f 18/42/5 44/89/5 47/94/5
f 14/36/6 45/91/6 48/96/6
f 15/38/5 46/92/5 50/100/5
f 16/40/3 42/86/3 46/93/3
